# xmcd
#
# Track frame offsets: 
#        187
#        15975
#        31387
#        47100
#
# Disc length: 832 seconds
#
# Revision: 0
# Processed by: cddbd v1.5.2PL0 Copyright (c) Steve Scherf et al.
# Submitted via: ExactAudioCopy v1.3
#
DISCID=25033e04
DTITLE=晴山さおり - １円玉の旅がらす
DYEAR=1990
DGENRE=Jpop
TTITLE0=１円玉の旅がらす
TTITLE1=みんなの演歌
TTITLE2=１円玉の旅がらす（カラオケ）
TTITLE3=みんなの演歌（カラオケ）
EXTD=
EXTT0=
EXTT1=
EXTT2=
EXTT3=
PLAYORDER=
